<svg width="17" height="17" viewBox="0 0 17 17" fill="none" xmlns="http://www.w3.org/2000/svg">
<g clip-path="url(#clip0)">
<path d="M4.25 8.50012C4.25 7.7074 4.46841 6.9648 4.84784 6.32896V3.63184H2.15072C1.08025 5.02209 0.5 6.71643 0.5 8.50012C0.5 10.2838 1.08025 11.9781 2.15072 13.3684H4.84784V10.6713C4.46841 10.0354 4.25 9.29284 4.25 8.50012Z" fill="#FBBD00"/>
<path d="M8.5 12.7502L6.625 14.6252L8.5 16.5002C10.2837 16.5002 11.978 15.92 13.3683 14.8495V12.1553H10.674C10.0326 12.5361 9.28691 12.7502 8.5 12.7502Z" fill="#0F9D58"/>
<path d="M4.84751 10.6709L2.15039 13.368C2.36233 13.6433 2.59311 13.9069 2.84283 14.1566C4.35383 15.6676 6.3628 16.4997 8.49967 16.4997V12.7497C6.94892 12.7497 5.58976 11.9147 4.84751 10.6709Z" fill="#31AA52"/>
<path d="M16.5 8.49964C16.5 8.01292 16.4559 7.5253 16.369 7.05036L16.2987 6.66602H8.5V10.416H12.2954C11.9268 11.1492 11.3601 11.7473 10.674 12.1547L13.3682 14.849C13.6435 14.637 13.9071 14.4062 14.1568 14.1565C15.6678 12.6455 16.5 10.6365 16.5 8.49964Z" fill="#3C79E6"/>
<path d="M11.5052 5.49478L11.8367 5.82622L14.4883 3.17459L14.1569 2.84316C12.6459 1.33216 10.6369 0.5 8.5 0.5L6.625 2.375L8.5 4.25C9.63519 4.25 10.7025 4.69206 11.5052 5.49478Z" fill="#CF2D48"/>
<path d="M8.50019 4.25V0.5C6.36332 0.5 4.35435 1.33216 2.84332 2.84313C2.5936 3.09284 2.36282 3.35644 2.15088 3.63172L4.848 6.32884C5.59029 5.085 6.94944 4.25 8.50019 4.25Z" fill="#EB4132"/>
</g>
<defs>
<clipPath id="clip0">
<rect width="16" height="16" fill="white" transform="translate(0.5 0.5)"/>
</clipPath>
</defs>
</svg>
