<svg width="14" height="14" viewBox="0 0 14 14" fill="none" xmlns="http://www.w3.org/2000/svg">
<path d="M7.31474 8.99769C8.1782 8.86215 8.86196 8.17834 8.9975 7.31493L10.0322 6.28027C10.0869 6.51327 10.1152 6.75436 10.1152 7.00015C10.1152 8.71791 8.71775 10.1154 6.99996 10.1154C6.75469 10.1154 6.5136 10.087 6.28041 10.032L7.31474 8.99769Z" fill="#BEBEBE"/>
<path d="M0.436191 7.6313C0.361597 7.53396 0.223155 7.33003 0.207623 7.30706L-5.14984e-05 7.00048L0.207651 6.69393C0.22321 6.67099 0.361597 6.46712 0.436191 6.3698C0.78455 5.9154 1.60032 4.85127 2.725 3.9204C4.13339 2.75474 5.57168 2.16368 6.99995 2.16368C8.03866 2.16368 9.08841 2.47909 10.126 3.10154L13.2129 0.0146484L13.9858 0.787547L0.786956 13.9864L0.0140305 13.2135L2.95928 10.2683C1.70866 9.29063 0.803417 8.11031 0.436191 7.6313ZM5.23666 7.99093L5.96644 7.26115C5.94546 7.17775 5.93423 7.09047 5.93423 7.00054C5.93423 6.41194 6.41138 5.93479 6.99998 5.93479C7.08988 5.93479 7.17716 5.94605 7.26056 5.967L7.99031 5.23725C7.69079 5.06859 7.35156 4.97833 6.99998 4.97833C5.88493 4.97833 4.9778 5.88549 4.9778 7.00051C4.97777 7.35284 5.06806 7.69165 5.23666 7.99093ZM4.4444 8.78316C4.08076 8.26393 3.88468 7.64667 3.88468 7.00054C3.88468 5.28278 5.28216 3.88527 6.99995 3.88527C7.64469 3.88527 8.26271 4.0817 8.78235 4.44521L9.32534 3.90222C8.54019 3.47363 7.76032 3.25674 6.99998 3.25674C5.15058 3.25674 3.24303 4.51639 1.33006 7.00057C1.72794 7.51925 2.57567 8.61062 3.73844 9.48918L4.4444 8.78316Z" fill="#BEBEBE"/>
<path d="M5.77068 10.5596C6.18453 10.6818 6.59501 10.7435 7 10.7435C8.84937 10.7435 10.7569 9.4839 12.6699 6.99977C12.3954 6.64189 11.8441 5.93172 11.102 5.2283L11.8752 4.45508C12.6926 5.2332 13.2835 6.00353 13.5638 6.36909C13.6383 6.4664 13.7767 6.67025 13.7923 6.69322L14 6.99971L13.7923 7.30629C13.7768 7.32921 13.6384 7.53316 13.5638 7.63054C13.2154 8.08493 12.3996 9.14904 11.2749 10.0799C9.86658 11.2456 8.42827 11.8366 7 11.8366C6.30675 11.8366 5.60864 11.6961 4.91252 11.4178L5.77068 10.5596Z" fill="#BEBEBE"/>
</svg>
