<svg width="21" height="16" viewBox="0 0 21 16" fill="none" xmlns="http://www.w3.org/2000/svg">
<g clip-path="url(#clip0)">
<path d="M15.5191 4.58461L15.5758 5.25538L16.2464 5.31415C18.2003 5.48539 19.6995 7.12133 19.7 9.08276C19.7004 11.1725 18.0067 12.8669 15.917 12.8675C15.917 12.8675 15.9169 12.8675 15.9169 12.8675H5.08287C3.389 12.8665 1.90216 11.7399 1.44289 10.1095C0.876313 8.09795 2.04766 6.00798 4.05916 5.4414L4.59292 5.29106L4.63944 4.73848C4.66113 4.48083 4.72983 4.22933 4.84214 3.99643C5.34999 2.9433 6.61543 2.50127 7.66857 3.00916L8.28242 3.30519L8.67226 2.74621C9.31316 1.82726 10.3297 1.24106 11.446 1.14667L11.3787 0.349932L11.446 1.14667C13.5201 0.971292 15.3437 2.5105 15.5191 4.58461Z" fill="#2196F3" stroke="#F9FFFF" stroke-width="1.6"/>
</g>
<defs>
<clipPath id="clip0">
<rect width="20" height="16" fill="white" transform="translate(0.5)"/>
</clipPath>
</defs>
</svg>
