<svg width="16" height="16" viewBox="0 0 16 16" fill="none" xmlns="http://www.w3.org/2000/svg">
<path d="M15.7626 7.64912C15.7448 7.62293 15.5867 7.3899 15.5014 7.27865C15.1033 6.75934 14.171 5.54318 12.8857 4.47934C11.2761 3.14715 9.63231 2.47168 8 2.47168C6.36769 2.47168 4.72394 3.14718 3.11438 4.47937C1.82903 5.54318 0.896719 6.75934 0.498563 7.27871C0.413344 7.38993 0.255188 7.6229 0.237406 7.64912L0 7.99949L0.237344 8.34987C0.255094 8.37606 0.413281 8.60915 0.498563 8.72043C0.896688 9.23974 1.82903 10.4559 3.11434 11.5197C4.72391 12.8519 6.36769 13.5274 8 13.5274C9.63231 13.5274 11.2761 12.8519 12.8857 11.5197C14.171 10.4559 15.1033 9.23971 15.5014 8.7204C15.5867 8.60915 15.7449 8.37609 15.7627 8.34984L16 7.99946L15.7626 7.64912ZM8 12.2781C5.88644 12.2781 3.70641 10.8386 1.52009 7.99952C3.70644 5.16043 5.88644 3.7209 8 3.7209C10.1136 3.7209 12.2936 5.16046 14.4799 7.99952C12.2936 10.8386 10.1136 12.2781 8 12.2781Z" fill="#BEBEBE"/>
<path d="M7.99977 4.43945C6.03661 4.43945 4.43945 6.03658 4.43945 7.99977C4.43945 9.96292 6.03658 11.5601 7.99977 11.5601C9.96295 11.5601 11.5601 9.96292 11.5601 7.99977C11.5601 6.03658 9.96292 4.43945 7.99977 4.43945ZM7.99977 10.3108C6.72542 10.3108 5.6887 9.27408 5.6887 7.99977C5.6887 6.72545 6.72542 5.6887 7.99977 5.6887C9.27411 5.6887 10.3108 6.72542 10.3108 7.99977C10.3108 9.27408 9.27411 10.3108 7.99977 10.3108Z" fill="#BEBEBE"/>
</svg>
